<?xml version="1.0" encoding="utf-8"?>
<!-- Generator: Adobe Illustrator 27.2.0, SVG Export Plug-In . SVG Version: 6.00 Build 0)  -->
<svg version="1.1" id="Layer_1" xmlns="http://www.w3.org/2000/svg" xmlns:xlink="http://www.w3.org/1999/xlink" x="0px" y="0px"
	 viewBox="0 0 236.4 115.2" style="enable-background:new 0 0 236.4 115.2;" xml:space="preserve">
<style type="text/css">
	.st0{fill:url(#SVGID_1_);}
	.st1{fill:url(#SVGID_00000076592640587428884790000001858113734074364084_);}
</style>
<linearGradient id="SVGID_1_" gradientUnits="userSpaceOnUse" x1="34.2601" y1="417.0178" x2="111.7036" y2="417.0178" gradientTransform="matrix(0.9597 -0.281 0.281 0.9597 -139.7744 -320.1033)">
	<stop  offset="0" style="stop-color:#00E99E"/>
	<stop  offset="1" style="stop-color:#00BF81"/>
</linearGradient>
<path class="st0" d="M43.3,5.7c22.9,0,38.2,15.8,38.2,39.6S66.2,84.9,43.3,84.9S5,69,5,45.3S20.3,5.7,43.3,5.7z M43.2,60.8
	c7.9,0,13.2-6.2,13.2-15.5s-5.2-15.5-13.2-15.5s-13,6.2-13,15.5S35.3,60.8,43.2,60.8z M59.8,107.6l-3.9-13.2c-0.8-2.6,0.5-5.3,3-6.3
	c4.2-1.8,9.1-4.5,12.9-7.8c1.6-1.3,3.8-1.6,5.6-0.7l11.4,5.7c2.8,1.4,3.8,4.9,2.1,7.5c-6.3,9.5-14.1,14.6-24.3,18.2
	C63.8,112.1,60.7,110.5,59.8,107.6z"/>
<linearGradient id="SVGID_00000004525747123220905000000015387561108013476236_" gradientUnits="userSpaceOnUse" x1="103.8" y1="419.5" x2="232.7" y2="419.5" gradientTransform="matrix(1 0 0 1 0 -364)">
	<stop  offset="0" style="stop-color:#0C290B"/>
	<stop  offset="1" style="stop-color:#176925"/>
</linearGradient>
<path style="fill:url(#SVGID_00000004525747123220905000000015387561108013476236_);" d="M136.6,69.7c-3,2.5-6.8,4-11,4
	c-12.1,0-21.8-9.7-21.8-21.7s9.7-21.7,21.8-21.7S147.3,40,147.3,52c0,5.9-2.4,11.2-6.2,15.2l7.7,7.2v6.5L136.6,69.7z M142.2,51.9
	c0-9.2-7.6-16.6-16.6-16.6S109,42.8,109,51.9s7.4,16.5,16.6,16.5S142.2,61,142.2,51.9z M153.6,57.3v-17h4.9v17
	c0,6.8,4.1,10.8,10.5,10.8s10.4-3.8,10.4-10.8v-17h4.9v17c0,9.8-6.3,15.7-15.4,15.7S153.5,67.1,153.6,57.3L153.6,57.3z M191.8,33.1
	c0-1.7,1.4-3,2.9-3c1.7,0,3.1,1.3,3.1,3c0,1.5-1.4,3-3.1,3C193.1,36,191.8,34.5,191.8,33.1z M192.4,40.4h4.6v32.4h-4.6V40.4z
	 M215.4,56.6l-11.5-16.2h5.8l8.6,12.2l8.5-12.2h5.8l-11.5,16l11.6,16.3H227l-8.7-12.2l-8.8,12.2h-5.8L215.4,56.6L215.4,56.6z"/>
</svg>
