<?xml version="1.0" encoding="utf-8"?>
<!-- Generator: Adobe Illustrator 27.2.0, SVG Export Plug-In . SVG Version: 6.00 Build 0)  -->
<svg version="1.1" id="Layer_1" xmlns="http://www.w3.org/2000/svg" xmlns:xlink="http://www.w3.org/1999/xlink" x="0px" y="0px"
	 viewBox="0 0 182 198" style="enable-background:new 0 0 182 198;" xml:space="preserve">
<style type="text/css">
	.st0{fill:url(#SVGID_1_);}
	.st1{fill:url(#SVGID_00000142138932926701219370000002487912413912696502_);}
</style>
<linearGradient id="SVGID_1_" gradientUnits="userSpaceOnUse" x1="11.4" y1="20.2182" x2="170.6" y2="20.2182" gradientTransform="matrix(1 0 0 -1 0 119.2064)">
	<stop  offset="0" style="stop-color:#133B1D"/>
	<stop  offset="1" style="stop-color:#002003"/>
</linearGradient>
<path class="st0" d="M11.4,72.9v52.2c0,12.3,6.6,23.7,17.2,29.8L73.8,181c10.6,6.1,23.8,6.1,34.4,0l45.2-26.1
	c10.7-6.1,17.2-17.5,17.2-29.8V72.9c0-12.3-6.6-23.7-17.2-29.8L108.2,17c-10.6-6.1-23.8-6.1-34.4,0L28.6,43.1
	C18,49.2,11.4,60.6,11.4,72.9L11.4,72.9z"/>
<linearGradient id="SVGID_00000119094133138447037790000011097411608865593529_" gradientUnits="userSpaceOnUse" x1="141.7263" y1="118.7809" x2="194.6893" y2="118.7809" gradientTransform="matrix(0.9597 -0.281 -0.281 -0.9597 -38.6242 267.321)">
	<stop  offset="0" style="stop-color:#00E99E"/>
	<stop  offset="1" style="stop-color:#00BF81"/>
</linearGradient>
<path style="fill:url(#SVGID_00000119094133138447037790000011097411608865593529_);" d="M86.6,69.2c15.7,0,26.1,10.8,26.1,27.1
	s-10.5,27.1-26.1,27.1s-26.2-10.8-26.2-27.1S70.8,69.2,86.6,69.2z M86.5,106.9c5.4,0,9-4.2,9-10.6s-3.6-10.6-9-10.6
	s-8.9,4.2-8.9,10.6S81.2,106.9,86.5,106.9z M97.9,138.9l-2.7-9c-0.5-1.8,0.4-3.6,2-4.3c2.9-1.2,6.2-3.1,8.8-5.3
	c1.1-0.9,2.6-1.1,3.8-0.5l7.8,3.9c1.9,1,2.6,3.4,1.4,5.2c-4.3,6.5-9.6,10-16.6,12.5C100.6,141.9,98.5,140.8,97.9,138.9L97.9,138.9z"
	/>
</svg>
