<?xml version="1.0" encoding="UTF-8"?>
<svg id="Layer_1" data-name="Layer 1" xmlns="http://www.w3.org/2000/svg" xmlns:xlink="http://www.w3.org/1999/xlink" viewBox="0 0 720.2 398.24">
  <defs>
    <style>
      .cls-1 {
        fill: url(#linear-gradient-2);
      }

      .cls-2 {
        fill: url(#linear-gradient);
      }
    </style>
    <linearGradient id="linear-gradient" x1="51.87" y1="304.44" x2="129.31" y2="304.44" gradientTransform="translate(-130.04 79.78) rotate(-16.32)" gradientUnits="userSpaceOnUse">
      <stop offset="0" stop-color="#00e99e"/>
      <stop offset="1" stop-color="#00bf81"/>
    </linearGradient>
    <linearGradient id="linear-gradient-2" x1="98.88" y1="342.29" x2="227.83" y2="342.29" gradientUnits="userSpaceOnUse">
      <stop offset="0" stop-color="#0c290b"/>
      <stop offset="1" stop-color="#176925"/>
    </linearGradient>
  </defs>
  <path class="cls-2" d="m38.3,292.57c22.89,0,38.19,15.83,38.19,39.58s-15.3,39.58-38.19,39.58S0,355.9,0,332.15s15.3-39.58,38.3-39.58Zm-.11,55.09c7.92,0,13.16-6.2,13.16-15.51s-5.24-15.51-13.16-15.51-13.05,6.2-13.05,15.51,5.24,15.51,13.05,15.51Zm16.68,46.82l-3.93-13.22c-.76-2.56.53-5.27,2.99-6.32,4.16-1.79,9.07-4.55,12.87-7.78,1.56-1.33,3.78-1.57,5.62-.66l11.43,5.7c2.79,1.39,3.8,4.93,2.07,7.53-6.34,9.52-14.05,14.57-24.26,18.2-2.83,1-5.93-.57-6.79-3.45Z"/>
  <path class="cls-1" d="m131.63,356.56c-2.97,2.48-6.81,3.96-10.96,3.96-12.07,0-21.79-9.72-21.79-21.73s9.72-21.73,21.79-21.73,21.67,9.72,21.67,21.73c0,5.88-2.35,11.2-6.19,15.17l7.68,7.18v6.5l-12.2-11.08Zm5.57-17.77c0-9.16-7.61-16.59-16.59-16.59s-16.59,7.43-16.59,16.59,7.43,16.53,16.59,16.53,16.59-7.43,16.59-16.53Zm11.39,5.39v-16.96h4.95v16.96c0,6.81,4.08,10.77,10.46,10.77s10.4-3.84,10.4-10.77v-16.96h4.95v16.96c0,9.78-6.31,15.72-15.35,15.72s-15.42-5.94-15.42-15.72Zm38.2-24.27c0-1.67,1.36-2.97,2.91-2.97,1.67,0,3.09,1.3,3.09,2.97,0,1.49-1.42,2.97-3.09,2.97-1.55,0-2.91-1.49-2.91-2.97Zm.62,7.3h4.64v32.38h-4.64v-32.38Zm23.03,16.22l-11.51-16.22h5.82l8.6,12.2,8.54-12.2h5.82l-11.51,16.03,11.64,16.34h-5.76l-8.73-12.2-8.79,12.2h-5.76l11.64-16.16Z"/>
</svg>