<?xml version="1.0" encoding="UTF-8"?>
<svg id="Layer_1" data-name="Layer 1" xmlns="http://www.w3.org/2000/svg" viewBox="0 0 800 195.29">
  <defs>
    <style>
      .cls-1 {
        fill: #adb2f5;
      }

      .cls-2 {
        fill: #f3f3f3;
      }
    </style>
  </defs>
  <g>
    <path class="cls-2" d="m318.92,176.67V22.59h56.05c10.34,0,19.47,1.9,27.4,5.69,7.93,3.79,14.1,9.31,18.51,16.55,4.41,7.24,6.62,15.89,6.62,25.96s-2.24,18.48-6.72,25.65c-4.48,7.17-10.65,12.69-18.51,16.55-7.86,3.86-16.96,5.79-27.3,5.79h-31.64v57.91h-24.41Zm24.41-79.63h32.26c5.51,0,10.34-1.1,14.48-3.31,4.14-2.2,7.37-5.27,9.72-9.2,2.34-3.93,3.52-8.58,3.52-13.96s-1.17-10.03-3.52-13.96c-2.35-3.93-5.58-6.96-9.72-9.1-4.14-2.14-8.96-3.21-14.48-3.21h-32.26v52.74Z"/>
    <path class="cls-2" d="m483.35,179.15c-10.75,0-20.58-2.55-29.47-7.65-8.89-5.1-15.96-12.06-21.2-20.89-5.24-8.82-7.86-18.82-7.86-29.99s2.62-21.34,7.86-30.09c5.24-8.75,12.27-15.65,21.1-20.68,8.82-5.03,18.68-7.55,29.58-7.55s20.92,2.52,29.68,7.55c8.76,5.04,15.72,11.93,20.89,20.68,5.17,8.76,7.76,18.79,7.76,30.09s-2.62,21.37-7.86,30.2c-5.24,8.83-12.27,15.76-21.1,20.79-8.83,5.03-18.61,7.55-29.37,7.55Zm0-21.72c6.62,0,12.48-1.58,17.58-4.76,5.1-3.17,9.13-7.55,12.1-13.13,2.96-5.58,4.45-11.89,4.45-18.92s-1.48-13.3-4.45-18.82c-2.97-5.51-7-9.86-12.1-13.03-5.1-3.17-10.96-4.76-17.58-4.76s-12.31,1.59-17.48,4.76c-5.17,3.17-9.24,7.52-12.2,13.03-2.97,5.52-4.45,11.79-4.45,18.82s1.48,13.34,4.45,18.92c2.96,5.58,7.03,9.96,12.2,13.13,5.17,3.17,10.99,4.76,17.48,4.76Z"/>
    <path class="cls-2" d="m547.67,176.67v-111.89h22.34v22.54l-2.07-3.31c2.48-7.31,6.48-12.58,12-15.82,5.51-3.24,12.13-4.86,19.86-4.86h6.82v21.3h-9.72c-7.72,0-13.96,2.38-18.72,7.14s-7.14,11.55-7.14,20.37v64.53h-23.37Z"/>
    <path class="cls-2" d="m656.26,177.91c-11.72,0-20.82-3.31-27.3-9.93-6.48-6.62-9.72-15.92-9.72-27.92v-54.19h-19.65v-21.1h3.1c5.24,0,9.31-1.52,12.2-4.55,2.9-3.03,4.34-7.17,4.34-12.41v-8.69h23.37v25.65h25.44v21.1h-25.44v53.15c0,3.86.62,7.14,1.86,9.82s3.24,4.76,6,6.2c2.76,1.45,6.34,2.17,10.75,2.17,1.1,0,2.34-.07,3.72-.21,1.38-.14,2.69-.27,3.93-.41v20.06c-1.93.27-4.07.55-6.41.83-2.35.27-4.41.41-6.2.41Z"/>
    <path class="cls-2" d="m707.34,179.15c-7.59,0-14.24-1.34-19.96-4.03-5.72-2.69-10.17-6.41-13.34-11.17-3.17-4.76-4.76-10.37-4.76-16.86,0-6.07,1.34-11.51,4.03-16.34,2.69-4.82,6.86-8.89,12.51-12.2,5.65-3.31,12.75-5.65,21.3-7.03l38.88-6.41v18.41l-34.33,6c-6.2,1.1-10.75,3.07-13.65,5.89-2.9,2.83-4.34,6.45-4.34,10.86s1.62,7.76,4.86,10.44c3.24,2.69,7.41,4.03,12.51,4.03,6.34,0,11.89-1.38,16.65-4.14,4.76-2.76,8.44-6.44,11.06-11.07,2.62-4.62,3.93-9.75,3.93-15.41v-28.75c0-5.51-2.04-10.03-6.1-13.55-4.07-3.52-9.48-5.27-16.24-5.27-6.2,0-11.62,1.62-16.24,4.86-4.62,3.24-8.03,7.41-10.24,12.51l-19.44-9.72c2.07-5.51,5.44-10.37,10.13-14.58,4.69-4.2,10.17-7.48,16.44-9.82,6.27-2.34,12.93-3.52,19.96-3.52,8.82,0,16.65,1.65,23.47,4.96,6.83,3.31,12.13,7.9,15.93,13.75,3.79,5.86,5.69,12.65,5.69,20.37v75.29h-22.34v-20.27l4.76.62c-2.62,4.55-5.97,8.48-10.03,11.79-4.07,3.31-8.69,5.86-13.86,7.65-5.17,1.79-10.93,2.69-17.27,2.69Z"/>
    <path class="cls-2" d="m776.63,176.67V20.1h23.37v156.57h-23.37Z"/>
  </g>
  <polygon class="cls-1" points="209.82 195.29 24.52 195.29 160.32 145.78 209.82 9.99 209.82 195.29"/>
  <polygon class="cls-1" points="0 0 185.29 0 49.5 49.5 0 185.29 0 0"/>
</svg>