<?xml version="1.0" encoding="UTF-8"?>
<svg id="Layer_1" data-name="Layer 1" xmlns="http://www.w3.org/2000/svg" viewBox="0 0 600 383.62">
  <defs>
    <style>
      .cls-1 {
        fill: #3434a3;
      }

      .cls-2, .cls-3, .cls-4 {
        fill: #fff;
      }

      .cls-5, .cls-6, .cls-7, .cls-8, .cls-9, .cls-10, .cls-11, .cls-12, .cls-13 {
        fill: none;
      }

      .cls-5, .cls-6, .cls-8, .cls-3, .cls-10, .cls-11, .cls-12, .cls-4, .cls-13 {
        stroke: #000;
      }

      .cls-5, .cls-3, .cls-11, .cls-12, .cls-4, .cls-13 {
        stroke-linejoin: round;
      }

      .cls-14 {
        fill: #fc6e04;
      }

      .cls-15 {
        fill: #e5e9e3;
      }

      .cls-6, .cls-7, .cls-8, .cls-9, .cls-10 {
        stroke-miterlimit: 10;
      }

      .cls-7, .cls-9 {
        stroke: #e5e9e3;
      }

      .cls-7, .cls-10, .cls-13 {
        stroke-width: 2px;
      }

      .cls-8, .cls-3, .cls-10, .cls-11, .cls-12, .cls-4, .cls-13 {
        stroke-linecap: round;
      }

      .cls-11, .cls-4 {
        stroke-width: .5px;
      }

      .cls-16 {
        fill: #0089f8;
      }

      .cls-17 {
        fill: #ff959b;
      }

      .cls-18 {
        fill: #ffa122;
      }

      .cls-19 {
        fill: #00a05b;
      }
    </style>
  </defs>
  <g>
    <g>
      <path class="cls-15" d="m372.79,319.84c0-2.14-.32-4.2-.91-6.14l6.97-2.73-5.91-10.24-5.85,4.67c-2.81-3-6.49-5.18-10.64-6.15l1.12-7.4h-11.82l1.12,7.4c-4.15.96-7.83,3.14-10.64,6.15l-5.85-4.67-5.91,10.24,6.96,2.73c-.59,1.94-.91,4.01-.91,6.15s.32,4.2.91,6.15l-6.96,2.73,5.91,10.24,5.85-4.67c2.81,3.01,6.49,5.19,10.64,6.15l-1.12,7.4h11.82l-1.12-7.4c4.15-.96,7.83-3.14,10.64-6.15l5.85,4.67,5.91-10.24-6.97-2.73c.59-1.95.91-4.01.91-6.15Zm-21.13,13.85c-7.65,0-13.85-6.2-13.85-13.85s6.2-13.85,13.85-13.85,13.85,6.2,13.85,13.85-6.2,13.85-13.85,13.85Z"/>
      <path class="cls-15" d="m357.91,56.37c0-1.54-.23-3.02-.66-4.42l5.01-1.96-4.25-7.37-4.21,3.36c-2.02-2.16-4.67-3.73-7.65-4.42l.81-5.32h-8.51l.81,5.32c-2.98.69-5.63,2.26-7.66,4.42l-4.21-3.36-4.25,7.37,5.01,1.96c-.42,1.4-.66,2.88-.66,4.42s.23,3.02.66,4.42l-5.01,1.96,4.25,7.37,4.21-3.36c2.02,2.16,4.67,3.73,7.66,4.42l-.81,5.32h8.51l-.81-5.32c2.98-.69,5.63-2.26,7.65-4.42l4.21,3.36,4.25-7.37-5.01-1.96c.42-1.4.66-2.88.66-4.42Zm-15.2,9.97c-5.5,0-9.97-4.46-9.97-9.97s4.46-9.97,9.97-9.97,9.97,4.46,9.97,9.97-4.46,9.97-9.97,9.97Z"/>
      <path class="cls-15" d="m131.26,192.14c0-1.54-.23-3.02-.66-4.42l5.01-1.96-4.25-7.37-4.21,3.36c-2.02-2.16-4.67-3.73-7.65-4.42l.81-5.32h-8.51l.81,5.32c-2.98.69-5.63,2.26-7.66,4.42l-4.21-3.36-4.25,7.37,5.01,1.96c-.42,1.4-.66,2.88-.66,4.42s.23,3.02.66,4.42l-5.01,1.96,4.25,7.37,4.21-3.36c2.02,2.16,4.67,3.73,7.66,4.42l-.81,5.32h8.51l-.81-5.32c2.98-.69,5.63-2.26,7.65-4.42l4.21,3.36,4.25-7.37-5.01-1.96c.42-1.4.66-2.88.66-4.42Zm-15.2,9.97c-5.51,0-9.97-4.46-9.97-9.97s4.46-9.97,9.97-9.97,9.97,4.46,9.97,9.97-4.46,9.97-9.97,9.97Z"/>
    </g>
    <g>
      <circle class="cls-9" cx="330.22" cy="12.46" r="11.96" transform="translate(242.65 331.09) rotate(-76.79)"/>
      <circle class="cls-9" cx="37.01" cy="236.69" r="11.96" transform="translate(-201.88 218.64) rotate(-76.79)"/>
      <circle class="cls-7" cx="211.11" cy="72.93" r="11.96" transform="translate(-11.79 87.09) rotate(-22.69)"/>
      <circle class="cls-15" cx="3.75" cy="182.45" r="3.75"/>
      <circle class="cls-1" cx="421.23" cy="162.83" r="11.74"/>
      <path class="cls-18" d="m273.97,42.4c0-3.4,2.76-6.16,6.16-6.16s6.16,2.76,6.16,6.16-2.76,6.16-6.16,6.16-6.16-2.76-6.16-6.16Z"/>
      <path class="cls-18" d="m540.56,216c0-3.4,2.76-6.16,6.16-6.16s6.16,2.76,6.16,6.16-2.76,6.16-6.16,6.16-6.16-2.76-6.16-6.16Z"/>
      <circle class="cls-1" cx="54.92" cy="195.63" r="6.74" transform="translate(-148.09 204.28) rotate(-76.76)"/>
      <path class="cls-15" d="m590.81,258.78c0-2.54,2.06-4.59,4.59-4.59s4.59,2.06,4.59,4.59-2.06,4.59-4.59,4.59-4.59-2.06-4.59-4.59Z"/>
      <path class="cls-15" d="m579.92,246.84c0-1.95,1.58-3.53,3.53-3.53s3.53,1.58,3.53,3.53-1.58,3.53-3.53,3.53-3.53-1.58-3.53-3.53Z"/>
      <path class="cls-15" d="m236.12,238.97c0-1.95,1.58-3.53,3.53-3.53s3.53,1.58,3.53,3.53-1.58,3.53-3.53,3.53-3.53-1.58-3.53-3.53Z"/>
      <circle class="cls-15" cx="133.8" cy="33.41" r="8.99"/>
      <path class="cls-15" d="m30.4,56.37c0-2.02,1.63-3.65,3.65-3.65s3.65,1.63,3.65,3.65-1.63,3.65-3.65,3.65-3.65-1.63-3.65-3.65Z"/>
      <circle class="cls-15" cx="48.19" cy="245.69" r="6.72" transform="translate(-201.73 230.73) rotate(-75.48)"/>
      <circle class="cls-15" cx="562.8" cy="79.85" r="6.72" transform="translate(355.38 609.09) rotate(-76.67)"/>
    </g>
    <path class="cls-11" d="m524.8,176.23c16.58-1.66,50.03-25.54,35.2-61.64-11.82-28.78-54.15-26.85-57.55-9.72-.34,5.22,3.81,10.75,9.01,11.26,28.08,2.75,45.99-32.21,28.08-64.28-25.73-46.07-124.83-44.69-136.46,21.2"/>
  </g>
  <line class="cls-5" x1="577.25" y1="353.12" x2="28.26" y2="353.12"/>
  <g>
    <g>
      <path class="cls-3" d="m368.98,150.69c0-43-34.9-77.84-77.91-77.77-41.36.08-75.91,33.27-77.56,74.6-.89,22.45,7.75,42.88,22.19,57.6,6.13,6.24,10.33,14.18,11.89,22.79,0,.05.02.09.03.14,3.98,22.34,5.78,31.52,5.78,31.52,0,0-.53,8.81,14.87,8.81h45.89c15.4,0,14.87-8.81,14.87-8.81,0,0,1.8-9.18,5.78-31.52,0-.05.02-.09.03-.14,1.58-8.69,5.89-16.64,12.06-22.96,13.66-14.01,22.09-33.15,22.09-54.26Z"/>
      <path class="cls-3" d="m324.27,286.1h-66.12c-3.15,0-5.7-2.55-5.7-5.7h0c0-3.15,2.55-5.7,5.7-5.7h66.12c3.15,0,5.7,2.55,5.7,5.7h0c0,3.15-2.55,5.7-5.7,5.7Z"/>
      <path class="cls-18" d="m322.12,292.4h-61.83s-.84,32.24,30.91,32.24,30.91-32.24,30.91-32.24Z"/>
      <circle class="cls-18" cx="291.21" cy="150.69" r="69.53"/>
      <path class="cls-12" d="m304.98,268.39l2.32-38.25c0-2.68,2.17-4.85,4.85-4.85h0c2.68,0,4.85,2.17,4.85,4.85h0c0,2.68-2.17,4.85-4.85,4.85h-41.87c-2.68,0-4.85-2.17-4.85-4.85h0c0-2.68,2.17-4.85,4.85-4.85h0c2.68,0,4.85,2.17,4.85,4.85l2.32,38.25"/>
    </g>
    <g>
      <path class="cls-2" d="m355.86,140.99c0-10.28-7.72-18.75-17.69-19.94-2.52-6.96-9.19-11.94-17.02-11.94-2.21,0-4.32.4-6.28,1.12-2.43-3.97-6.82-6.62-11.82-6.62-4.1,0-7.79,1.79-10.33,4.62-3.74-2.61-8.29-4.14-13.2-4.14-8.32,0-15.62,4.4-19.69,11-1.87-.76-3.91-1.18-6.06-1.18-8.88,0-16.07,7.2-16.07,16.07,0,2.44.55,4.76,1.52,6.83-7.55,4.06-12.68,12.03-12.68,21.2,0,13.28,10.77,24.05,24.05,24.05,3.24,0,6.33-.64,9.15-1.81,3.59,5.11,9.53,8.45,16.26,8.45,5.38,0,10.25-2.14,13.83-5.61,3.17,2.86,7.37,4.61,11.98,4.61,3.73,0,7.19-1.14,10.06-3.1l12.17,13.72c.94,1.06,2.29,1.67,3.71,1.67,3.01,0,5.32-2.66,4.91-5.64l-2.43-17.41c7.02-.87,12.46-6.85,12.46-14.11,0-.99-.1-1.95-.29-2.88,7.83-2.74,13.44-10.19,13.44-18.96Z"/>
      <g>
        <path class="cls-8" d="m342.71,162.83c0,7.86-6.37,14.22-14.22,14.22-3.99,0-7.6-1.65-10.19-4.3"/>
        <path class="cls-8" d="m292.44,180.03c-3.58,5.24-9.6,8.68-16.42,8.68-10.97,0-19.86-8.89-19.86-19.86"/>
        <path class="cls-8" d="m242.09,140.99c-2.71-2.88-4.37-6.75-4.37-11.02,0-8.88,7.2-16.07,16.07-16.07,6.47,0,12.05,3.83,14.6,9.34"/>
        <path class="cls-8" d="m303.59,131.55c-2.4-9.7,3.52-19.51,13.22-21.91,9.7-2.4,19.51,3.52,21.91,13.22"/>
        <path class="cls-12" d="m355.86,140.99c0-10.28-7.72-18.75-17.69-19.94-2.52-6.96-9.19-11.94-17.02-11.94-2.21,0-4.32.4-6.28,1.12-2.43-3.97-6.82-6.62-11.82-6.62-4.1,0-7.79,1.79-10.33,4.62-3.74-2.61-8.29-4.14-13.2-4.14-8.32,0-15.62,4.4-19.69,11-1.87-.76-3.91-1.18-6.06-1.18-8.88,0-16.07,7.2-16.07,16.07,0,2.44.55,4.76,1.52,6.83-7.55,4.06-12.68,12.03-12.68,21.2,0,13.28,10.77,24.05,24.05,24.05,3.24,0,6.33-.64,9.15-1.81,3.59,5.11,9.53,8.45,16.26,8.45,5.38,0,10.25-2.14,13.83-5.61,3.17,2.86,7.37,4.61,11.98,4.61,3.73,0,7.19-1.14,10.06-3.1l12.17,13.72c.94,1.06,2.29,1.67,3.71,1.67,3.01,0,5.32-2.66,4.91-5.64l-2.43-17.41c7.02-.87,12.46-6.85,12.46-14.11,0-.99-.1-1.95-.29-2.88,7.83-2.74,13.44-10.19,13.44-18.96Z"/>
        <path class="cls-8" d="m300.43,133.1c2.04-1.38,4.51-2.19,7.16-2.19,3.97,0,7.52,1.81,9.87,4.64"/>
        <path class="cls-12" d="m284.97,115.25c1.14-3.01,3.53-5.52,6.78-6.71,2.97-1.09,6.11-.87,8.77.36"/>
        <path class="cls-12" d="m246.12,156.42c2.82-5.21,9.33-7.14,14.54-4.32,3.17,1.72,5.13,4.81,5.54,8.14"/>
        <path class="cls-12" d="m302.22,170.24c0,5.4-4.38,9.78-9.78,9.78-2.77,0-5.27-1.15-7.05-3"/>
      </g>
      <path d="m306.67,136.44c-4.67,0-8.61,3.15-9.84,7.43h-26.06c-1.55,0-2.8,1.26-2.8,2.8s1.26,2.8,2.8,2.8h.9v3.1c0,.93.75,1.68,1.68,1.68s1.68-.75,1.68-1.68v-3.1h3.15v3.1c0,.93.75,1.68,1.68,1.68s1.68-.75,1.68-1.68v-3.1h15.28c1.22,4.28,5.17,7.43,9.84,7.43,5.64,0,10.24-4.59,10.24-10.24s-4.59-10.24-10.24-10.24Zm0,14.86c-2.55,0-4.63-2.08-4.63-4.63s2.08-4.63,4.63-4.63,4.63,2.08,4.63,4.63-2.08,4.63-4.63,4.63Z"/>
    </g>
  </g>
  <g>
    <path d="m291.21,341.9s16.81-37.45,107.65-13.17l-6.32,16.86"/>
    <g>
      <path class="cls-3" d="m291.21,341.9s-10.35-12.11-33.78-15.24c-29.42-3.93-85.38,16.67-85.38,16.67l2.45,6.19,116.72-1.87v-5.75Z"/>
      <polygon points="291.21 352.99 170.32 352.99 170.32 349.59 291.21 347.64 291.21 352.99"/>
      <path class="cls-11" d="m172.53,344.56s46.61-14.67,70.02-15.74c31.53-1.44,48.66,14.19,48.66,14.19"/>
      <path class="cls-11" d="m172.93,345.58s43.19-13.93,77.31-12.98c27.52.77,40.97,11.4,40.97,11.4"/>
      <path class="cls-11" d="m173.34,346.6s49.12-10.69,79.97-10.06c22.73.47,37.91,8.3,37.91,8.3"/>
      <path class="cls-11" d="m173.75,347.64s47.81-7.79,76.42-7.26c28.6.53,41.04,5.35,41.04,5.35"/>
      <path class="cls-11" d="m174.1,348.53s55.04-4.66,78.44-4.6c24.72.07,38.67,2.66,38.67,2.66"/>
    </g>
    <g>
      <path class="cls-3" d="m291.21,341.9s10.35-12.11,33.78-15.24c29.42-3.93,85.38,16.67,85.38,16.67l-2.45,6.19-116.72-1.87v-5.75Z"/>
      <polygon points="291.21 352.99 412.1 352.99 412.1 349.59 291.21 347.64 291.21 352.99"/>
      <path class="cls-11" d="m409.89,344.56s-46.61-14.67-70.02-15.74c-31.53-1.44-48.66,14.19-48.66,14.19"/>
      <path class="cls-11" d="m409.49,345.58s-43.19-13.93-77.31-12.98c-27.52.77-40.97,11.4-40.97,11.4"/>
      <path class="cls-11" d="m409.09,346.6s-49.12-10.69-79.97-10.06c-22.73.47-37.91,8.3-37.91,8.3"/>
      <path class="cls-11" d="m408.67,347.64s-47.81-7.79-76.42-7.26c-28.6.53-41.04,5.35-41.04,5.35"/>
      <path class="cls-11" d="m408.32,348.53s-55.04-4.66-78.44-4.6c-24.72.07-38.67,2.66-38.67,2.66"/>
    </g>
    <path class="cls-14" d="m253.26,331.83s-6.81,15.59-21.19,28.65l12.51-1.34-.96,13.8s19.34-16.43,22.26-39.58c0,0-5.75-1.32-12.63-1.53Z"/>
  </g>
  <g>
    <g>
      <circle class="cls-2" cx="360.74" cy="107.83" r="18.79"/>
      <path class="cls-19" d="m388.06,107.83c0-2.76-.41-5.43-1.18-7.94l9.01-3.53-7.64-13.23-7.56,6.04c-3.64-3.88-8.39-6.7-13.75-7.95l1.45-9.57h-15.28l1.45,9.57c-5.36,1.24-10.12,4.06-13.76,7.94l-7.56-6.04-7.64,13.23,9,3.52c-.76,2.51-1.18,5.18-1.18,7.94s.41,5.43,1.18,7.95l-9,3.52,7.64,13.23,7.56-6.04c3.64,3.88,8.39,6.7,13.76,7.95l-1.45,9.56h15.28l-1.45-9.56c5.36-1.24,10.12-4.06,13.75-7.95l7.56,6.04,7.64-13.23-9.01-3.53c.76-2.51,1.18-5.18,1.18-7.95Zm-27.32,17.91c-9.89,0-17.91-8.01-17.91-17.91s8.01-17.91,17.91-17.91,17.91,8.02,17.91,17.91-8.01,17.91-17.91,17.91Z"/>
      <path d="m345.99,104.19s9.02,5.78,14.81,16.83c0,0,7.3-18.27,21.49-26.98l-6.27-5.71s-10.19,9.38-15.89,23.49c0,0-6.38-7.63-14.14-7.63Z"/>
    </g>
    <g>
      <circle class="cls-2" cx="167.81" cy="140.45" r="13.39"/>
      <path class="cls-19" d="m187.27,140.45c0-1.97-.29-3.87-.84-5.66l6.42-2.51-5.44-9.43-5.39,4.31c-2.59-2.77-5.98-4.78-9.8-5.66l1.03-6.82h-10.89l1.03,6.82c-3.82.89-7.21,2.89-9.8,5.66l-5.39-4.3-5.44,9.43,6.41,2.51c-.54,1.79-.84,3.69-.84,5.66s.3,3.87.84,5.66l-6.41,2.51,5.44,9.43,5.39-4.3c2.59,2.77,5.98,4.78,9.8,5.66l-1.03,6.81h10.89l-1.03-6.81c3.82-.89,7.21-2.89,9.8-5.66l5.39,4.3,5.44-9.43-6.42-2.51c.54-1.79.84-3.69.84-5.66Zm-19.46,12.76c-7.05,0-12.76-5.71-12.76-12.76s5.71-12.76,12.76-12.76,12.76,5.72,12.76,12.76-5.71,12.76-12.76,12.76Z"/>
      <g>
        <path d="m167.26,144.76c-.63,0-1.17.23-1.61.68-.45.45-.67.98-.67,1.58s.22,1.08.67,1.44c.45.36.98.54,1.61.54s1.2-.18,1.65-.54c.45-.36.67-.84.67-1.44s-.22-1.13-.67-1.58c-.45-.45-1-.68-1.65-.68Z"/>
        <path d="m170.86,132.39c-.86-.33-1.77-.5-2.74-.5-.67,0-1.31.07-1.91.2-.35.08-1.11.32-1.72.52-.53.18-.88.67-.88,1.22h0c0,.94.98,1.57,1.83,1.17.58-.27,1.13-.53,1.35-.62.54-.24,1.08-.36,1.6-.36s.88.12,1.14.35c.25.23.42.52.5.88.08.36.12.72.12,1.1,0,.66-.13,1.19-.39,1.59-.26.4-.6.72-1.01.94-.41.22-.86.39-1.33.49l-.46.1c-.51.11-.87.56-.87,1.08v1.81c0,.67.54,1.21,1.21,1.21h0c.6,0,1.11-.45,1.2-1.04l.09-.63c.92-.23,1.78-.56,2.56-.99.79-.42,1.42-1,1.9-1.72.48-.72.72-1.65.72-2.78,0-1.02-.27-1.86-.81-2.53-.54-.67-1.24-1.17-2.1-1.5Z"/>
      </g>
    </g>
    <g>
      <g>
        <rect class="cls-6" x="154.59" y="179.32" width="26.44" height="26.44" rx="5.23" ry="5.23"/>
        <g>
          <line class="cls-10" x1="185.6" y1="186.33" x2="211.11" y2="186.33"/>
          <line class="cls-10" x1="185.6" y1="192.54" x2="211.11" y2="192.54"/>
          <line class="cls-10" x1="185.6" y1="198.75" x2="203.7" y2="198.75"/>
        </g>
        <polyline class="cls-13" points="158.87 192.54 167.81 200.84 182.49 179.32"/>
      </g>
      <g>
        <rect class="cls-6" x="154.59" y="218.66" width="26.44" height="26.44" rx="5.23" ry="5.23"/>
        <g>
          <line class="cls-10" x1="185.6" y1="225.67" x2="211.11" y2="225.67"/>
          <line class="cls-10" x1="185.6" y1="231.88" x2="211.11" y2="231.88"/>
          <line class="cls-10" x1="185.6" y1="238.08" x2="203.7" y2="238.08"/>
        </g>
        <polyline class="cls-13" points="158.87 231.88 167.81 240.17 182.49 218.66"/>
      </g>
    </g>
    <g>
      <path d="m92.16,45.96c-20.97,0-37.96,16.99-37.96,37.95s17,37.96,37.96,37.96,37.95-16.99,37.95-37.96-16.99-37.95-37.95-37.95Zm0,70.61c-18.04,0-32.66-14.61-32.66-32.66s14.62-32.65,32.66-32.65,32.65,14.61,32.65,32.65-14.61,32.66-32.65,32.66Z"/>
      <path class="cls-18" d="m96.11,83.92c0,2.19-1.77,3.96-3.96,3.96s-3.96-1.77-3.96-3.96,1.77-3.96,3.96-3.96,3.96,1.77,3.96,3.96Z"/>
      <path d="m93.99,83.92c0,1.02-.82,1.84-1.84,1.84s-1.84-.82-1.84-1.84.82-1.84,1.84-1.84,1.84.82,1.84,1.84Z"/>
      <path d="m92.15,60.02h0c-.89,0-1.61-.72-1.61-1.61v-4.07c0-.89.72-1.61,1.61-1.61h0c.89,0,1.61.72,1.61,1.61v4.07c0,.89-.72,1.61-1.61,1.61Z"/>
      <path d="m116.05,83.92h0c0-.89.72-1.61,1.61-1.61h4.07c.89,0,1.61.72,1.61,1.61h0c0,.89-.72,1.61-1.61,1.61h-4.07c-.89,0-1.61-.72-1.61-1.61Z"/>
      <path d="m92.15,107.83h0c.89,0,1.61.72,1.61,1.61v4.07c0,.89-.72,1.61-1.61,1.61h0c-.89,0-1.61-.72-1.61-1.61v-4.07c0-.89.72-1.61,1.61-1.61Z"/>
      <path d="m68.25,83.92h0c0,.89-.72,1.61-1.61,1.61h-4.07c-.89,0-1.61-.72-1.61-1.61h0c0-.89.72-1.61,1.61-1.61h4.07c.89,0,1.61.72,1.61,1.61Z"/>
      <polyline class="cls-12" points="75.71 107.87 92.15 83.92 101.23 91.25"/>
    </g>
    <g>
      <rect class="cls-3" x="359.13" y="199.84" width="44.62" height="50.08" rx="6.11" ry="6.11"/>
      <g>
        <path class="cls-18" d="m409.16,206.57v29.86c0,4.45-3.61,8.06-8.06,8.06h-29.86c-.72,0-1.3-.58-1.3-1.3v-11.24c0-.93.94-1.55,1.8-1.19.78.32,1.64.5,2.53.49,3.45-.05,6.26-2.87,6.28-6.32.03-3.54-2.83-6.42-6.37-6.42-.87,0-1.69.17-2.45.49-.86.36-1.8-.26-1.8-1.19v-11.25c0-.72.58-1.3,1.3-1.3h10.88c.84,0,1.47.79,1.26,1.61-.13.53-.2,1.08-.2,1.65.04,3.46,2.86,6.27,6.32,6.29,3.54.03,6.42-2.83,6.42-6.37,0-.54-.07-1.06-.19-1.56-.21-.82.41-1.62,1.25-1.62h10.88c.72,0,1.3.58,1.3,1.3Z"/>
        <path d="m393.29,234.8l-2.16-9.32c.96-.55,1.62-1.58,1.62-2.77,0-1.76-1.43-3.19-3.19-3.19s-3.19,1.43-3.19,3.19c0,1.19.65,2.22,1.62,2.77l-2.16,9.32h7.47Z"/>
      </g>
    </g>
    <g>
      <g>
        <path class="cls-19" d="m88.44,290.27s-5.45-2.77-10.28-8.81c0,0-13.63,13.41-23.5,21.11,0,0,6.89-21.55,26.72-35.86,0,0,8.45,10.91,13.28,23.56h-6.21Z"/>
        <path d="m91.71,290.27s-8.96-26.92-7.35-48.5c0,0,10.63,21.84,12.53,48.5"/>
        <path class="cls-19" d="m94.64,290.27s0-30,15.86-54.83c0,0-.11,24.95-4.6,43.45,0,0,6.77-13.16,17.36-23.22,0,0-4.94,21.15-15.75,34.6"/>
      </g>
      <g>
        <rect class="cls-2" x="79.48" y="290.27" width="36.06" height="59.82"/>
        <rect x="73.6" y="346.5" width="47.82" height="6.62"/>
        <rect class="cls-16" x="79.48" y="298.95" width="36.06" height="5.69"/>
        <rect class="cls-16" x="79.48" y="307.22" width="36.06" height="5.69"/>
        <rect class="cls-16" x="79.48" y="341.65" width="36.06" height="2.01"/>
        <rect class="cls-11" x="79.48" y="290.27" width="36.06" height="59.82"/>
      </g>
      <path class="cls-4" d="m102.92,290.27s5.17-8.73,10-11.92c0,0,13.1,22.07,12.59,41.47,0,0-7.59-6.9-16.56-29.54h-6.03Z"/>
      <path class="cls-11" d="m68.27,253.37s15.52,17.93,20.81,36.9"/>
    </g>
    <g>
      <rect class="cls-3" x="428.95" y="91.87" width="63.77" height="45.44" rx="4.47" ry="4.47"/>
      <g>
        <path d="m441.91,96.58h0c-1.05,0-1.9-.85-1.9-1.9v-5.63c0-1.05.85-1.9,1.9-1.9h0c1.05,0,1.9.85,1.9,1.9v5.63c0,1.05-.85,1.9-1.9,1.9Z"/>
        <path d="m479.76,96.58h0c-1.05,0-1.9-.85-1.9-1.9v-5.63c0-1.05.85-1.9,1.9-1.9h0c1.05,0,1.9.85,1.9,1.9v5.63c0,1.05-.85,1.9-1.9,1.9Z"/>
      </g>
      <line class="cls-3" x1="431.44" y1="101.7" x2="490.23" y2="101.7"/>
      <g>
        <rect x="431.44" y="105.58" width="8.84" height="5.86" rx="1.32" ry="1.32"/>
        <rect x="443.93" y="105.58" width="8.84" height="5.86" rx="1.32" ry="1.32"/>
        <rect x="456.42" y="105.58" width="8.84" height="5.86" rx="1.32" ry="1.32"/>
        <rect x="468.9" y="105.58" width="8.84" height="5.86" rx="1.32" ry="1.32"/>
        <rect class="cls-16" x="481.39" y="105.58" width="8.84" height="5.86" rx="1.32" ry="1.32"/>
      </g>
      <g>
        <rect x="431.44" y="115.95" width="8.84" height="5.86" rx="1.32" ry="1.32"/>
        <rect x="443.93" y="115.95" width="8.84" height="5.86" rx="1.32" ry="1.32"/>
        <rect x="456.42" y="115.95" width="8.84" height="5.86" rx="1.32" ry="1.32"/>
        <rect x="468.9" y="115.95" width="8.84" height="5.86" rx="1.32" ry="1.32"/>
        <rect class="cls-16" x="481.39" y="115.95" width="8.84" height="5.86" rx="1.32" ry="1.32"/>
      </g>
      <g>
        <rect x="431.44" y="126.33" width="8.84" height="5.86" rx="1.32" ry="1.32"/>
        <rect x="443.93" y="126.33" width="8.84" height="5.86" rx="1.32" ry="1.32"/>
        <rect x="456.42" y="126.33" width="8.84" height="5.86" rx="1.32" ry="1.32"/>
        <rect x="468.9" y="126.33" width="8.84" height="5.86" rx="1.32" ry="1.32"/>
        <rect class="cls-16" x="481.39" y="126.33" width="8.84" height="5.86" rx="1.32" ry="1.32"/>
      </g>
    </g>
    <g>
      <line class="cls-5" x1="260.29" y1="383.12" x2="84.82" y2="383.12"/>
      <g>
        <rect class="cls-14" x="152.58" y="269.31" width="8.79" height="109.85" transform="translate(-59.95 36.64) rotate(-11.19)"/>
        <rect x="135.37" y="375.16" width="66.65" height="7.97"/>
        <g>
          <rect class="cls-14" x="174.81" y="226.41" width="4.4" height="94.52" transform="translate(361.3 4.84) rotate(67.33)"/>
          <g>
            <rect class="cls-14" x="203.31" y="252.63" width="13.04" height="17.59" transform="translate(-84.56 101.09) rotate(-22.67)"/>
            <polygon points="217.9 263.85 211.89 266.36 205.87 268.87 196.84 289.09 217.74 280.36 238.64 271.63 217.9 263.85"/>
          </g>
        </g>
        <polygon points="145.56 289.19 153.84 285.74 154.09 287.01 146.37 293.3 145.56 289.19"/>
        <rect class="cls-14" x="180.11" y="370.73" width="9.54" height="4.43"/>
        <path class="cls-11" d="m209.83,262.35l-15.63,6.53s.71,28.37-5.69,29.55c-7.18,1.32-8.23-23.73-8.23-23.73,0,0,1.68,33.45-5.85,36.84-10.7,4.82-11.84-29.45-11.84-29.45v93.07"/>
        <circle class="cls-11" cx="217.74" cy="280.36" r="7.59" transform="translate(-93.81 450.51) rotate(-80.81)"/>
      </g>
    </g>
  </g>
  <g>
    <path class="cls-14" d="m465.03,171s-5.13,6.93.48,12.02c5.62,5.09,5.44-11.06,5.44-11.06"/>
    <path class="cls-17" d="m419.59,288.6s-2.17,6.38-5.02,14.49l-17.13-20.03s1.6-4.81.14-10.94c-.88-3.69-3.1-6.05-3.87-11.54-.77-5.49-.82-6.12-2.97-6.65-2.67-.65-4.48,2.28-4.89,4.68-.52,3.04.39,6.6,1.04,8.59-3.91-2.64-12.62-8.22-18.77-9.9-4.88-1.33-5.95,1.34-4.99,3.16-.66-.24-1.3-.45-1.91-.62-5.51-1.51-6.16,2.1-4.51,3.81-5.08-.95-5.21,3.04-3.13,4.41.09.06.22.14.35.23-2.65.49-3.3,3.6-.35,5.34,1.3.77,6.11,3.62,10.72,6.38,3.62,3.98,6.22,9.32,15.12,10.61,5.06,13.5,23.2,45.43,36.74,49.86,0,0,6.9,2.62,14.65-2.92,9.69-6.93,21.12-41.13,21.12-41.13l-32.35-7.83Z"/>
    <path class="cls-17" d="m558.35,278.5s16.82,29.55,17.72,47.27c.72,14.26-14.39,22.1-23.86,16.66-2.96-1.7-7.46-7.31-12.26-14.23-10.59-15.26-22.61-36.88-22.61-36.88l41.02-12.82Z"/>
    <path class="cls-1" d="m478.02,233.07s-18.07,5.15-34.98,10.82c-11.58,3.89-25.33,47.67-25.33,47.67,4.06,2.64,15.61,7.38,29.13,9.51l1.99,51.92h84.56l-1.56-50.21c8.91-2.6,26.64-9.75,33.03-16.52,0,0-18.01-39.9-23.35-43.43-7.55-4.98-32.37-9.78-32.37-9.78h-31.12Z"/>
    <path class="cls-17" d="m509.37,177.37c-5.54-14.99-36.63-21.63-43.97.6,0,0-6.92,23.49-1.36,33.46,3.06,5.49,8.77,7.46,14.8,7.16l-5.38,18.04s15.03,12.14,35.45-3.57l-5.96-29.03c7.62-9.73,9.48-18.41,6.43-26.66Z"/>
    <path class="cls-14" d="m485.38,172.31s4.56,5.93,12.64,3.04c0,0-2.62,6.08-2.1,10.49.52,4.4,5.35,8.18,5.35,8.18l9.75-2.57s6.22-4.41,4.77-13c-1.22-7.24-8.34-5.82-8.34-5.82,0,0,2.3-10.36-6.03-14.68-8.08-4.2-14.63,1.26-14.63,1.26,0,0-3.15-4.4-10.17-1.78-7.03,2.62-10.59,4.96-13.84,4.02-3.25-.94-2.31,11.14,5.14,13.55,7.45,2.41,17.46-2.67,17.46-2.67Z"/>
    <path class="cls-17" d="m501.27,194.02c1.33-2.65,5.96-7.34,11.06-4.3,9.54,5.68-3.99,21.45-11.17,16.47-4.4-3.05-1.26-9.45.11-12.17Z"/>
    <path d="m478.83,218.59s9.35-1.59,14.94-8.08c0,0-2.84,11.2-16.96,14.84l2.02-6.77Z"/>
    <path class="cls-11" d="m415.14,303.7s6.79,5.97,14.63,16.15"/>
    <g>
      <path class="cls-11" d="m363.8,260.65s9.61,4.52,15.88,8.91"/>
      <path class="cls-11" d="m357.16,263.97s7.66,2.31,16.56,8.57"/>
      <path class="cls-11" d="m354.65,268.54s8.31,3.51,14.33,8.01"/>
    </g>
    <path class="cls-11" d="m446.61,300s-.82-25.48,0-35.54"/>
    <g>
      <path d="m502.49,262.11s-14.76-3.33-30.88,8.13l6.72,9.48,24.16-17.62Z"/>
      <path class="cls-4" d="m475.6,283.08l-5.69-7.84s9.89-12.76,32.58-13.13c0,0,3.86-13.33,22.39-16.81l5.44,13.49-54.71,24.3Z"/>
      <path class="cls-16" d="m502.49,264.6l23.93,45.3s-14.49,1.43-25.43,12.76l-29.99-42.62s6.75-12.47,31.49-15.44Z"/>
      <path class="cls-16" d="m505.3,262.75s2.04-12.23,21.73-15.96l21.53,51.89s-13.2,1.45-19.33,9.37l-23.93-45.3Z"/>
      <polygon points="502.49 264.6 505.3 262.75 529.22 308.04 526.41 309.9 502.49 264.6"/>
    </g>
    <path class="cls-17" d="m542.3,312.18h0c-.53-5.1-2.76-11.15-2.76-11.15-2.34.79-4.66,2.09-4.66,2.09l-5.08-6.38s-4.73-5.37-7.16-8.23c-2.43-2.86-6.76-1.16-5.99,1.57.14.48.61,1.59,1.22,2.92-.19-.25-.38-.48-.56-.7-2.43-2.86-6.76-1.16-5.99,1.57.12.43.51,1.35,1.02,2.47-2.44-2.7-6.64-1.02-5.88,1.68.14.51.66,1.7,1.31,3.11-2.09-.36-4.1,1.05-3.56,2.99.43,1.52,5.16,8.58,6.26,10.08,7.06,9.52,16.63,11.79,19.27,12.25,1.11,1.24,17.56,14.05,23.85,16.67l-11.29-30.93Z"/>
    <path class="cls-11" d="m539.54,301.03s2.15,6.82,2.76,11.15c0,0,9.48,2.09,20.5,9.83"/>
    <path class="cls-11" d="m518.29,293.63s6.98,10.14,9.17,12.38"/>
    <path class="cls-11" d="m512.55,296.75s7.32,10.7,9.51,12.94"/>
    <path class="cls-11" d="m508.17,301.62s6.57,9.21,8.77,11.45"/>
    <g>
      <path class="cls-16" d="m508.03,228.83s-5.54,8.1-16.73,9.16l-1.58,11.98s3.87-.85,8.48-3.2l1.92,3.2s9.94-5.58,11.39-16.44l-3.47-4.71Z"/>
      <path class="cls-16" d="m484.68,249.98l-1.72-11.9c-7.01-2.3-7.36-8.66-7.36-8.66l-5.7,6.03s-.8,10.68,7.39,15.91l.91-3.73c3.39,1.98,6.47,2.35,6.47,2.35Z"/>
      <line class="cls-11" x1="478.42" y1="246.96" x2="480.48" y2="238.56"/>
      <line class="cls-11" x1="498.04" y1="246.42" x2="494.22" y2="238.56"/>
    </g>
    <g>
      <circle class="cls-12" cx="464.43" cy="188.64" r="7"/>
      <circle class="cls-12" cx="483.93" cy="191.16" r="7"/>
      <path class="cls-12" d="m471.43,188.64s2.99-.96,5.7.88"/>
    </g>
  </g>
</svg>